<?xml version="1.0" encoding="utf-8"?>
<!-- Generator: Adobe Illustrator 28.3.0, SVG Export Plug-In . SVG Version: 6.00 Build 0)  -->
<svg version="1.1" id="Layer_1" xmlns="http://www.w3.org/2000/svg" xmlns:xlink="http://www.w3.org/1999/xlink" x="0px" y="0px"
	 viewBox="0 0 1043 415" style="enable-background:new 0 0 1043 415;" xml:space="preserve">
<style type="text/css">
	.st0{fill:#FFFFFF;}
	.st1{fill:none;stroke:#F06663;stroke-width:5.6693;stroke-miterlimit:10;}
	.st2{fill:#F06663;}
</style>
<g>
	<path class="st0" d="M27.7,198.2c0.6-40,8.7-86.6,40.8-125.6c53.8-65.3,150.8-62.7,200.8,5.8c32.7,44.8,39.1,96.6,36,150.2
		c-2.1,36.2-10.7,70.8-30.4,101.9c-51.2,80.7-162.2,81.9-215,2.3C34.8,294.6,27.5,251.7,27.7,198.2z M273.9,209.5
		c0.3-39.5-3.9-78.3-21.4-114.4c-14.7-30.4-37-52.4-72-57.3c-42.9-6.1-79.8,12.8-98.4,55.7C49.4,168.8,50.4,245.9,80.4,322
		c9.3,23.7,26.9,41.7,51.3,51.5c47.5,18.9,96.6-1.7,120.5-51C269.6,286.8,274.2,248.5,273.9,209.5z"/>
	<path class="st0" d="M749.6,388.9c0,0,13.6-36.7,20.4-54.9c35.5-95.8,108.4-292.9,108.4-292.9l16.3,0.2l128.8,348.4l-31.2,0.8
		l-39.7-106.6l-147.3-0.1l-38.1,105.5L749.6,388.9z M879.1,85.6c-1.1,0.1-2.2,0.2-3.3,0.4c-21.2,58.7-67.1,184-67.1,184l138.5,0.1
		c0,0-39.7-109.4-57.4-156.7C886.3,104.1,882.7,94.9,879.1,85.6z"/>
	<path class="st0" d="M761.2,40.9c0,0-60.4,108.6-90.6,162.2c-5.5,9.8-8.4,19.6-8.3,31.1c0.6,47.7,1,154.1,1,154.1h-30.5
		c0,0-0.5-101.4-0.1-146.8c0.1-11.9-2.6-22.2-8.1-32.6c-26.9-51.7-85.5-166.5-85.5-166.5l30.7-0.6c0,0,54.6,99.5,76.8,142.8
		c2.6,5,5.5,9.9,8.7,15.6c5.4-3.3,6.6-8.6,8.8-12.9c22.1-43.9,72.4-146.5,72.4-146.5L761.2,40.9z"/>
	<path class="st0" d="M381.6,213.9c0-54-0.3-174.2-0.3-174.2h28.9l0.3,338.4l115-7.7l-0.1,20.6l-143.3-1
		C382.1,390,381.6,268.4,381.6,213.9z"/>
</g>
<path class="st1" d="M-836.1,224.8c0,0-9.2-5-10-14.6s9-15.4,18.3-14.5c12.9,0.8,19.1,17,14.6,35.7c-4.5,18.6-64.5,127.7-64.5,127.7
	s-44.1-33.3-46.2-114.4c-1.6-60.7,39.1-114.4,86.7-114.4s88.9,53,88.9,116.4c0,86.8-52.2,112.4-52.2,112.4l-21.1-45.1"/>
<circle class="st2" cx="-837.1" cy="161.1" r="12.8"/>
<circle class="st2" cx="-883.1" cy="190.3" r="6.2"/>
<circle class="st2" cx="-893.5" cy="293.5" r="6.2"/>
<circle class="st2" cx="-778.8" cy="221.5" r="6.2"/>
<circle class="st2" cx="-860.6" cy="266" r="13.7"/>
<circle class="st2" cx="-794.4" cy="293.5" r="13.8"/>
<path class="st2" d="M-808.5,136.6c-10.5-4.8-20.7-7-28.7-7c-7.5,0-16.8,2.1-26.5,6.5c0.9-12,12.9-21.5,27.6-21.5
	C-821.2,114.7-809,124.4-808.5,136.6z"/>
<path class="st1" d="M-857.4,91.6c1.1,0,3.8-0.7,7.5,3.6c4.1,4.6,3.3,21.9,3.3,21.9"/>
<path class="st1" d="M-814.8,91.6c-1.1,0-3.8-0.7-7.5,3.6c-4.1,4.6-3.3,21.9-3.3,21.9"/>
</svg>
